<svg width="103" height="91" viewBox="0 0 103 91" fill="none" xmlns="http://www.w3.org/2000/svg">
<path d="M81.4032 74.1482C78.6554 74.1482 76.4193 76.4165 76.4193 79.2038C76.4193 81.991 78.6554 84.2593 81.4032 84.2593C84.151 84.2593 86.387 81.991 86.387 79.2038C86.387 76.4165 84.151 74.1482 81.4032 74.1482ZM81.4032 80.8889C80.4861 80.8889 79.7419 80.134 79.7419 79.2038C79.7419 78.2735 80.4861 77.5186 81.4032 77.5186C82.3202 77.5186 83.0645 78.2735 83.0645 79.2038C83.0645 80.134 82.3202 80.8889 81.4032 80.8889Z" fill="black"/>
<path d="M28.242 74.1482C25.4942 74.1482 23.2581 76.4165 23.2581 79.2038C23.2581 81.991 25.4942 84.2593 28.242 84.2593C30.9898 84.2593 33.2259 81.991 33.2259 79.2038C33.2259 76.4165 30.9898 74.1482 28.242 74.1482ZM28.242 80.8889C27.325 80.8889 26.5807 80.134 26.5807 79.2038C26.5807 78.2735 27.325 77.5186 28.242 77.5186C29.159 77.5186 29.9033 78.2735 29.9033 79.2038C29.9033 80.134 29.159 80.8889 28.242 80.8889Z" fill="black"/>
<path d="M98.4082 52.2407L96.192 51.1167L93.9343 37.3757C93.2648 33.2942 89.8177 30.3333 85.7409 30.3333H68.1129C65.41 30.3333 63.0277 31.6697 61.5109 33.7037H56.4839V16.8519H46.5161V0H23.2581V16.8519H13.2903V33.7037H3.32258V50.5556C1.49018 50.5556 0 52.0672 0 53.9259V57.2963C0 59.1551 1.49018 60.6667 3.32258 60.6667V75.8333C3.32258 78.6206 5.55868 80.8889 8.30645 80.8889H16.7458C17.5565 86.5949 22.3959 91 28.2419 91C34.088 91 38.9274 86.5949 39.7381 80.8889H69.9071C70.7178 86.5949 75.5571 91 81.4032 91C87.2493 91 92.0886 86.5949 92.8994 80.8889H98.0161C100.764 80.8889 103 78.6206 103 75.8333V59.7769C103 56.5649 101.241 53.6799 98.4082 52.2407ZM99.6774 68.0511L96.3548 66.366V64.037H99.6774V68.0511ZM33.2258 37.0741H36.5484V40.4444H33.2258V37.0741ZM39.871 43.8148V37.0741H43.1935V50.5556H26.5806V37.0741H29.9032V43.8148H39.871ZM59.8064 50.5556H46.5161V37.0741H49.8387V43.8148H59.8064V50.5556ZM59.8064 38.7593V40.4444H53.1613V37.0741H59.9742C59.8646 37.6184 59.8064 38.1829 59.8064 38.7593ZM53.1613 33.7037H46.5161H43.1935H36.5484V20.2222H39.871V26.963H49.8387V20.2222H53.1613V33.7037ZM43.1935 20.2222H46.5161V23.5926H43.1935V20.2222ZM33.2258 3.37037H36.5484V6.74074H33.2258V3.37037ZM26.5806 3.37037H29.9032V10.1111H39.871V3.37037H43.1935V16.8519H36.5484H33.2258H26.5806V3.37037ZM23.2581 20.2222H26.5806V23.5926H23.2581V20.2222ZM16.6129 20.2222H19.9355V26.963H29.9032V20.2222H33.2258V33.7037H26.5806H23.2581H16.6129V20.2222ZM13.2903 37.0741H16.6129V40.4444H13.2903V37.0741ZM6.64516 37.0741H9.96774V43.8148H19.9355V37.0741H23.2581V50.5556H6.64516V37.0741ZM3.32258 53.9259H59.8064V57.2963H3.32258V53.9259ZM6.64516 67.4074H12.8235L11.9929 70.7778H6.64516V67.4074ZM6.64516 75.8333V74.1481H14.5878L17.0797 64.037H6.64516V60.6667H59.8064V77.5185H39.7381C38.9274 71.8125 34.088 67.4074 28.2419 67.4074C22.3959 67.4074 17.5565 71.8125 16.7458 77.5185H8.30645C7.38942 77.5185 6.64516 76.7636 6.64516 75.8333ZM28.2419 87.6296C23.6618 87.6296 19.9355 83.8498 19.9355 79.2037C19.9355 74.5576 23.6618 70.7778 28.2419 70.7778C32.8221 70.7778 36.5484 74.5576 36.5484 79.2037C36.5484 83.8498 32.8221 87.6296 28.2419 87.6296ZM79.7419 50.5556H86.3871V53.9259H84.7258H83.0645C81.2321 53.9259 79.7419 52.4143 79.7419 50.5556ZM79.7419 47.1852C77.9095 47.1852 76.4193 48.6968 76.4193 50.5556C76.4193 51.7891 76.7715 52.93 77.343 53.9259H69.7742V40.4444H84.8022L86.0465 47.1852H79.7419ZM69.7742 57.2963H83.0645H84.7258H86.3871V68.5618C84.8737 67.8304 83.1874 67.4074 81.4032 67.4074C75.5571 67.4074 70.7178 71.8125 69.9071 77.5185H69.7742V57.2963ZM81.4032 87.6296C76.823 87.6296 73.0968 83.8498 73.0968 79.2037C73.0968 74.5576 76.823 70.7778 81.4032 70.7778C85.9834 70.7778 89.7097 74.5576 89.7097 79.2037C89.7097 83.8498 85.9834 87.6296 81.4032 87.6296ZM98.0161 77.5185H92.8994C92.5405 74.9874 91.3942 72.7124 89.7097 70.9648V48.8704L88.07 39.8277C87.7776 38.2335 86.4037 37.0741 84.8039 37.0741H69.7742C67.9418 37.0741 66.4516 38.5857 66.4516 40.4444V77.5185H63.129V38.7593C63.129 35.972 65.3651 33.7037 68.1129 33.7037H85.7409C88.1879 33.7037 90.2546 35.4816 90.6566 37.9285L93.1934 53.3648L96.9213 55.2555C98.6208 56.1184 99.6774 57.8507 99.6774 59.7769V60.6667H93.0323V68.4489L99.6774 71.8192V75.8333C99.6774 76.7636 98.9332 77.5185 98.0161 77.5185Z" fill="black"/>
</svg>
