<svg width="91" height="104" viewBox="0 0 91 104" fill="none" xmlns="http://www.w3.org/2000/svg">
<path d="M18.537 97.2903C12.9607 97.2903 8.4259 92.7764 8.4259 87.2258C8.4259 81.6752 12.9607 77.1613 18.537 77.1613C24.1133 77.1613 28.6481 81.6752 28.6481 87.2258C28.6481 92.7764 24.1133 97.2903 18.537 97.2903ZM18.537 80.5161C14.8195 80.5161 11.7963 83.5254 11.7963 87.2258C11.7963 90.9262 14.8195 93.9355 18.537 93.9355C22.2545 93.9355 25.2778 90.9262 25.2778 87.2258C25.2778 83.5254 22.2545 80.5161 18.537 80.5161Z" fill="black"/>
<path d="M72.4629 23.4839C67.8169 23.4839 64.037 19.7215 64.037 15.0968C64.037 10.4722 67.8169 6.70972 72.4629 6.70972C77.109 6.70972 80.8888 10.4722 80.8888 15.0968C80.8888 19.7215 77.109 23.4839 72.4629 23.4839ZM72.4629 10.0646C69.6756 10.0646 67.4074 12.3224 67.4074 15.0968C67.4074 17.8713 69.6756 20.1291 72.4629 20.1291C75.2502 20.1291 77.5185 17.8713 77.5185 15.0968C77.5185 12.3224 75.2502 10.0646 72.4629 10.0646Z" fill="black"/>
<path d="M18.537 104C9.24493 104 1.68519 96.4751 1.68519 87.2258C1.68519 82.7354 3.51867 78.4211 6.74074 75.2709V32.6627C2.44689 29.1385 0 24.0072 0 18.4516C0 11.1213 4.36463 4.48544 11.1222 1.5466L13.4815 0.52002V17.6129L18.537 21.3871L23.5926 17.6129V0.52002L25.9519 1.5466C32.7094 4.48544 37.0741 11.1213 37.0741 18.4516C37.0741 24.0072 34.6272 29.1385 30.3333 32.6627V75.2709C33.5554 78.4211 35.3889 82.7354 35.3889 87.2258C35.3889 96.4751 27.8291 104 18.537 104ZM10.1111 5.90621C5.94702 8.67395 3.37037 13.3573 3.37037 18.4516C3.37037 23.2256 5.58133 27.6204 9.43872 30.5089L10.1111 31.0122V76.747L9.54994 77.2469C6.69356 79.7949 5.05556 83.4332 5.05556 87.2258C5.05556 94.6249 11.1037 100.645 18.537 100.645C25.9704 100.645 32.0185 94.6249 32.0185 87.2258C32.0185 83.4332 30.3805 79.7949 27.5241 77.2452L26.963 76.7453V31.0105L27.6354 30.5072C31.4927 27.6204 33.7037 23.2256 33.7037 18.4516C33.7037 13.3573 31.1271 8.67395 26.963 5.90621V19.2903L18.537 25.5807L10.1111 19.2903V5.90621Z" fill="black"/>
<path d="M20.2223 70.4517H16.8519C14.9932 70.4517 13.4816 68.9471 13.4816 67.0969V40.2582C13.4816 38.408 14.9932 36.9033 16.8519 36.9033H20.2223C22.0811 36.9033 23.5927 38.408 23.5927 40.2582V67.0969C23.5927 68.9471 22.0811 70.4517 20.2223 70.4517ZM16.8519 40.2582V67.0969H20.224L20.2223 40.2582H16.8519Z" fill="black"/>
<path d="M78.4723 95.6129H66.4519L60.3853 85.5484L66.4519 75.4839H78.4723L84.539 85.5484L78.4723 95.6129ZM68.3612 92.2581H76.563L80.6075 85.5484L76.563 78.8387H68.3612L64.3168 85.5484L68.3612 92.2581Z" fill="black"/>
<path d="M72.4629 104C62.2423 104 53.9259 95.7219 53.9259 85.5484C53.9259 78.5904 57.8591 72.2565 64.037 69.1181V27.6355C59.8561 24.8459 57.2963 20.1274 57.2963 15.0968C57.2963 6.77174 64.1011 0 72.4629 0C80.8248 0 87.6296 6.77174 87.6296 15.0968C87.6296 20.1274 85.0698 24.8459 80.8889 27.6355V69.1181C87.0668 72.2565 91 78.5888 91 85.5484C91 95.7219 82.6836 104 72.4629 104ZM72.4629 3.35484C65.9581 3.35484 60.6666 8.62361 60.6666 15.0968C60.6666 19.2635 62.9282 23.1568 66.5665 25.2552L67.4074 25.74V71.2769L66.3963 71.7164C60.8689 74.1218 57.2963 79.5516 57.2963 85.5484C57.2963 93.8734 64.1011 100.645 72.4629 100.645C80.8248 100.645 87.6296 93.8734 87.6296 85.5484C87.6296 79.5516 84.057 74.1218 78.5296 71.7164L77.5185 71.2769V25.74L78.3594 25.2552C81.9977 23.1568 84.2592 19.2635 84.2592 15.0968C84.2592 8.62361 78.9678 3.35484 72.4629 3.35484Z" fill="black"/>
<path d="M70.7777 68.7743H74.1481V72.1291H70.7777V68.7743Z" fill="black"/>
<path d="M70.7777 46.9678H74.1481V65.4194H70.7777V46.9678Z" fill="black"/>
<path d="M74.1481 43.6129H70.7777V40.2581H74.1481V43.6129ZM74.1481 36.9033H70.7777V33.5484H74.1481V36.9033ZM74.1481 30.1936H70.7777V26.8387H74.1481V30.1936Z" fill="black"/>
</svg>
