<svg width="108" height="108" viewBox="0 0 108 108" fill="none" xmlns="http://www.w3.org/2000/svg">
<path d="M98.5078 31.8516H95.1328V27.7172C95.1328 22.9019 91.2153 18.9844 86.4 18.9844H80.6233L62.5653 0.926648C61.9985 0.359648 61.216 0.0151875 60.3766 0.00232031C60.3604 0.00210938 60.3446 0 60.3281 0H28.6875C26.9401 0 25.5234 1.41666 25.5234 3.16406V18.9844H21.6C16.7847 18.9844 12.8672 22.9019 12.8672 27.7172V31.8516H9.49219C4.2582 31.8516 0 36.1098 0 41.3438V79.3125C0 84.5465 4.2582 88.8047 9.49219 88.8047H25.5234V104.836C25.5234 106.583 26.9401 108 28.6875 108H79.3125C81.0599 108 82.4766 106.583 82.4766 104.836V88.8047H98.5078C103.742 88.8047 108 84.5465 108 79.3125V41.3438C108 36.1098 103.742 31.8516 98.5078 31.8516ZM82.4766 25.3125H86.4C87.726 25.3125 88.8047 26.3912 88.8047 27.7172V31.8516H82.4766V25.3125ZM63.4922 10.8027L71.6738 18.9844H63.4922V10.8027ZM31.8516 35.0156V6.32812H57.1641V22.1484C57.1641 23.8958 58.5807 25.3125 60.3281 25.3125H72.9844H76.1484V35.0156V38.1797H31.8516V35.0156ZM19.1953 27.7172C19.1953 26.3912 20.274 25.3125 21.6 25.3125H25.5234V31.8516H19.1953V27.7172ZM76.1484 101.672H31.8516V69.8203H76.1484V101.672ZM101.672 79.3125C101.672 81.0572 100.252 82.4766 98.5078 82.4766H82.4766V69.8203H85.6406C87.388 69.8203 88.8047 68.4037 88.8047 66.6562C88.8047 64.9088 87.388 63.4922 85.6406 63.4922H79.3125H28.6875H22.3594C20.612 63.4922 19.1953 64.9088 19.1953 66.6562C19.1953 68.4037 20.612 69.8203 22.3594 69.8203H25.5234V82.4766H9.49219C7.74752 82.4766 6.32812 81.0572 6.32812 79.3125V41.3438C6.32812 39.5991 7.74752 38.1797 9.49219 38.1797C12.786 38.1797 22.2195 38.1797 25.5234 38.1797V41.3438C25.5234 43.0912 26.9401 44.5078 28.6875 44.5078H79.3125C81.0599 44.5078 82.4766 43.0912 82.4766 41.3438V38.1797C85.7805 38.1797 95.214 38.1797 98.5078 38.1797C100.252 38.1797 101.672 39.5991 101.672 41.3438V79.3125Z" fill="black"/>
<path d="M91.9688 50.8359H85.6406C83.8932 50.8359 82.4766 52.2526 82.4766 54C82.4766 55.7474 83.8932 57.1641 85.6406 57.1641H91.9688C93.7162 57.1641 95.1328 55.7474 95.1328 54C95.1328 52.2526 93.7162 50.8359 91.9688 50.8359Z" fill="black"/>
<path d="M66.6562 76.1484H41.3438C39.5963 76.1484 38.1797 77.5651 38.1797 79.3125C38.1797 81.0599 39.5963 82.4766 41.3438 82.4766H66.6562C68.4037 82.4766 69.8203 81.0599 69.8203 79.3125C69.8203 77.5651 68.4037 76.1484 66.6562 76.1484Z" fill="black"/>
<path d="M66.6562 88.8047H41.3438C39.5963 88.8047 38.1797 90.2213 38.1797 91.9688C38.1797 93.7162 39.5963 95.1328 41.3438 95.1328H66.6562C68.4037 95.1328 69.8203 93.7162 69.8203 91.9688C69.8203 90.2213 68.4037 88.8047 66.6562 88.8047Z" fill="black"/>
</svg>
