<svg width="107" height="108" viewBox="0 0 107 108" fill="none" xmlns="http://www.w3.org/2000/svg">
<g clip-path="url(#clip0)">
<path d="M105.433 104.836H100.299V83.0908C101.325 82.1804 101.974 80.8475 101.974 79.3635C101.974 76.6264 99.7681 74.3997 97.0565 74.3997H86.8023L85.2188 48.8286C85.1672 47.9948 84.4821 47.3453 83.6546 47.3453H76.9535C76.1259 47.3453 75.4408 47.9948 75.3892 48.8286L73.8058 74.3997H70.0497L68.4662 48.8286C68.4146 47.9948 67.7295 47.3453 66.902 47.3453H60.2011C59.3735 47.3453 58.6885 47.9948 58.6368 48.8286L57.0534 74.3997H53.2973L51.7138 48.8286C51.6622 47.9948 50.9771 47.3453 50.1496 47.3453H43.4487C42.6211 47.3453 41.9361 47.9948 41.8844 48.8286L40.301 74.3997H35.9353L34.9643 30.2923C34.9455 29.4325 34.2494 28.7455 33.3974 28.7455H23.3459C22.4938 28.7455 21.7977 29.4325 21.7789 30.2923L20.6589 81.1634H8.26826C5.55648 81.1634 3.35044 83.3903 3.35044 86.1272C3.35044 87.6112 3.99975 88.9441 5.02566 89.8545V104.836H1.56738C0.701769 104.836 0 105.544 0 106.418C0 107.292 0.701769 108 1.56738 108H105.433C106.298 108 107 107.292 107 106.418C107 105.544 106.298 104.836 105.433 104.836ZM20.5095 87.9272H14.97C14.1044 87.9272 13.4026 88.6355 13.4026 89.5092C13.4026 90.3829 14.1044 91.0912 14.97 91.0912H20.4399L20.1373 104.836H8.16042V91.0883C8.19637 91.0891 8.2321 91.091 8.26826 91.091C9.13387 91.091 9.83564 90.3827 9.83564 89.509C9.83564 88.6353 9.13387 87.9269 8.26826 87.9269C7.28499 87.9269 6.4852 87.1195 6.4852 86.1272C6.4852 85.1348 7.2852 84.3275 8.26826 84.3275H20.5887L20.5095 87.9272ZM78.4258 50.5094H82.1818L83.6613 74.3997H76.9466L78.4258 50.5094ZM61.6734 50.5094H65.4295L66.9089 74.3997H60.1942L61.6734 50.5094ZM44.921 50.5094H48.6771L50.1562 74.3997H43.4416L44.921 50.5094ZM26.8041 104.836H23.2731L24.8783 31.9093H31.8641L32.7997 74.3997H30.0467C27.3349 74.3997 25.1287 76.6266 25.1287 79.3635C25.1287 80.8475 25.778 82.1804 26.8041 83.0908V104.836ZM97.0565 81.1632H93.7061C92.8405 81.1632 92.1387 81.8716 92.1387 82.7453C92.1387 83.619 92.8405 84.3273 93.7061 84.3273H97.0565C97.0927 84.3273 97.1284 84.3252 97.1644 84.3246V104.836H29.9387V84.3246C29.9746 84.3254 30.0104 84.3273 30.0465 84.3273H87.0063C87.8719 84.3273 88.5736 83.619 88.5736 82.7453C88.5736 81.8716 87.8719 81.1632 87.0063 81.1632H30.0465C29.0632 81.1632 28.2633 80.3558 28.2633 79.3635C28.2633 78.3713 29.0632 77.5638 30.0465 77.5638H97.0563C98.0396 77.5638 98.8396 78.3711 98.8396 79.3635C98.8396 80.356 98.0396 81.1632 97.0565 81.1632Z" fill="black"/>
<path d="M87.0051 0C82.2833 0 77.7817 1.66324 74.1832 4.71108C71.5998 2.75442 68.4688 1.69087 65.2268 1.69087C61.2912 1.69087 57.5341 3.2592 54.7414 6.03197C53.2938 5.4019 51.7279 5.07262 50.1496 5.07262C45.4897 5.07262 41.3357 7.88885 39.5125 12.1036C38.8835 11.9258 38.2394 11.8361 37.5853 11.8361C34.3475 11.8361 31.5632 13.9613 30.5686 16.9383C30.3954 16.9189 30.2211 16.909 30.0466 16.909C27.3348 16.909 25.1285 19.1358 25.1285 21.8727C25.1287 22.7467 25.8305 23.455 26.6961 23.455C27.5617 23.455 28.2635 22.7467 28.2635 21.873C28.2635 20.8805 29.0635 20.0732 30.0468 20.0732C30.3577 20.0732 30.6627 20.162 30.9527 20.3373C31.4225 20.621 32.0048 20.6366 32.489 20.3791C32.973 20.1213 33.289 19.6273 33.322 19.0757C33.4593 16.7906 35.332 15.0006 37.5851 15.0006C38.2975 15.0006 39.0007 15.1949 39.6749 15.5782C40.0973 15.8184 40.6066 15.8475 41.0536 15.657C41.5006 15.4666 41.8348 15.078 41.9591 14.6047C42.9432 10.8555 46.3112 8.2369 50.1494 8.2369C51.6039 8.2369 53.0449 8.6208 54.3163 9.34685C54.9663 9.7181 55.7861 9.57487 56.2743 9.00408C58.5305 6.36736 61.7936 4.85515 65.2266 4.85515C68.1618 4.85515 70.9839 5.96109 73.1728 7.96901C73.7837 8.52926 74.7203 8.51555 75.3147 7.93737C78.4787 4.85916 82.6304 3.16406 87.0051 3.16406C96.3019 3.16406 103.865 10.7983 103.865 20.1819C103.865 29.5654 96.3019 37.1997 87.0051 37.1997C80.8327 37.1997 75.1586 33.7981 72.1971 28.3224C71.8021 27.5921 70.9141 27.2955 70.1655 27.6436C68.5935 28.3745 66.9319 28.7451 65.2268 28.7451C61.7938 28.7451 58.5307 27.2329 56.2745 24.5962C55.7863 24.0256 54.9667 23.8821 54.3166 24.2534C53.0451 24.9794 51.6041 25.3633 50.1496 25.3633C47.5009 25.3633 45.05 24.1393 43.4255 22.005C43.1305 21.6175 42.6747 21.3893 42.1904 21.3867C42.1877 21.3867 42.1852 21.3867 42.1827 21.3867C41.7014 21.3867 41.2465 21.6101 40.9493 21.9926C40.12 23.0601 38.8939 23.6722 37.5853 23.6722C36.7197 23.6722 36.0179 24.3806 36.0179 25.2543C36.0179 26.128 36.7197 26.8363 37.5853 26.8363C39.2465 26.8363 40.8264 26.2761 42.1137 25.2598C44.2644 27.354 47.1112 28.5272 50.1496 28.5272C51.7279 28.5272 53.2938 28.1979 54.7414 27.5681C57.5341 30.3408 61.2914 31.9091 65.2268 31.9091C66.916 31.9091 68.5699 31.6229 70.1603 31.057C73.8225 36.8314 80.1548 40.3637 87.0051 40.3637C98.0304 40.3637 107 31.3101 107 20.1819C107 9.05365 98.0304 0 87.0051 0Z" fill="black"/>
<path d="M40.098 87.927C39.2324 87.927 38.5306 88.6353 38.5306 89.509V92.8908C38.5306 93.7645 39.2324 94.4728 40.098 94.4728C40.9636 94.4728 41.6654 93.7645 41.6654 92.8908V89.509C41.6654 88.6353 40.9636 87.927 40.098 87.927Z" fill="black"/>
<path d="M46.7991 87.927C45.9335 87.927 45.2317 88.6353 45.2317 89.509V92.8908C45.2317 93.7645 45.9335 94.4728 46.7991 94.4728C47.6647 94.4728 48.3665 93.7645 48.3665 92.8908V89.509C48.3665 88.6353 47.6647 87.927 46.7991 87.927Z" fill="black"/>
<path d="M53.5 87.927C52.6344 87.927 51.9326 88.6353 51.9326 89.509V92.8908C51.9326 93.7645 52.6344 94.4728 53.5 94.4728C54.3656 94.4728 55.0674 93.7645 55.0674 92.8908V89.509C55.0674 88.6353 54.3656 87.927 53.5 87.927Z" fill="black"/>
<path d="M60.2009 87.927C59.3353 87.927 58.6335 88.6353 58.6335 89.509V92.8908C58.6335 93.7645 59.3353 94.4728 60.2009 94.4728C61.0665 94.4728 61.7683 93.7645 61.7683 92.8908V89.509C61.7683 88.6353 61.0668 87.927 60.2009 87.927Z" fill="black"/>
<path d="M66.902 87.927C66.0364 87.927 65.3346 88.6353 65.3346 89.509V92.8908C65.3346 93.7645 66.0364 94.4728 66.902 94.4728C67.7676 94.4728 68.4694 93.7645 68.4694 92.8908V89.509C68.4694 88.6353 67.7676 87.927 66.902 87.927Z" fill="black"/>
<path d="M73.6029 87.927C72.7373 87.927 72.0355 88.6353 72.0355 89.509V92.8908C72.0355 93.7645 72.7373 94.4728 73.6029 94.4728C74.4685 94.4728 75.1703 93.7645 75.1703 92.8908V89.509C75.1703 88.6353 74.4685 87.927 73.6029 87.927Z" fill="black"/>
<path d="M80.304 87.927C79.4383 87.927 78.7366 88.6353 78.7366 89.509V92.8908C78.7366 93.7645 79.4383 94.4728 80.304 94.4728C81.1696 94.4728 81.8713 93.7645 81.8713 92.8908V89.509C81.8713 88.6353 81.1696 87.927 80.304 87.927Z" fill="black"/>
<path d="M87.005 87.927C86.1394 87.927 85.4376 88.6353 85.4376 89.509V92.8908C85.4376 93.7645 86.1394 94.4728 87.005 94.4728C87.8706 94.4728 88.5724 93.7645 88.5724 92.8908V89.509C88.5724 88.6353 87.8706 87.927 87.005 87.927Z" fill="black"/>
</g>
<defs>
<clipPath id="clip0">
<rect width="107" height="108" fill="white"/>
</clipPath>
</defs>
</svg>
