<svg width="108" height="108" viewBox="0 0 108 108" fill="none" xmlns="http://www.w3.org/2000/svg">
<g clip-path="url(#clip0)">
<path d="M104.622 53.2802C101.011 50.3041 95.303 50.0489 91.557 54.0691L82.2574 64.0522C81.0551 60.188 77.4461 57.3743 73.1919 57.3743H56.5964C55.3371 57.3743 54.9155 56.8934 52.728 55.2082C44.388 47.9376 31.8613 47.9608 23.5465 55.2778L17.4466 60.6478C14.7047 59.1966 11.5028 59.1607 8.74589 60.5382L1.74952 64.0353C0.18647 64.8179 -0.446131 66.7182 0.334127 68.2812L19.3174 106.248C20.1 107.811 22.0004 108.443 23.5634 107.663L30.5598 104.164C34.0084 102.441 35.9277 98.9222 35.8033 95.3409H73.1917C80.1248 95.3409 86.7499 92.0294 90.9094 86.4822L106.098 66.2292C109.045 62.3037 108.579 56.5474 104.622 53.2802ZM27.729 98.5046L23.5632 100.588L7.40855 68.2812L11.5765 66.1974C13.1395 65.4169 15.0377 66.0476 15.8203 67.6128L29.1444 94.2609C29.9249 95.8238 29.292 97.722 27.729 98.5046ZM101.036 62.4324L85.8473 82.6853C82.8755 86.6486 78.1443 89.013 73.1919 89.013H33.595L21.7388 65.2988L27.7269 60.0279C33.6855 54.7863 42.671 54.7863 48.6295 60.0279C52.1393 63.1179 54.3223 63.7022 56.5962 63.7022H73.1917C74.9362 63.7022 76.3556 65.1218 76.3556 66.8661C76.3556 68.6103 74.936 70.0299 73.1917 70.0299H57.0329C55.2863 70.0299 53.869 71.4474 53.869 73.1938C53.869 74.9401 55.2865 76.3576 57.0329 76.3576H75.3116C77.9376 76.3576 80.4689 75.2565 82.2574 73.3351L96.1869 58.3826C97.4609 57.0157 99.414 57.1296 100.612 58.178C101.865 59.2746 102 61.1499 101.036 62.4324Z" fill="black"/>
<path d="M66.5265 21.593C68.6926 19.3214 70.0279 16.2504 70.0279 12.869C70.0279 5.90429 64.4005 0.00268555 57.3725 0.00268555C50.3972 0.00268555 44.5061 5.89375 44.5061 12.869C44.5061 16.1468 45.7907 19.241 48.1235 21.6183C42.3379 24.8623 38.1784 31.0888 38.1784 38.391V41.5548C38.1784 43.3012 39.5959 44.7187 41.3423 44.7187H73.1919C74.9383 44.7187 76.3558 43.3012 76.3558 41.5548V38.391C76.3556 31.2322 72.418 24.9087 66.5265 21.593ZM57.3725 6.3306C60.8021 6.3306 63.7002 9.3257 63.7002 12.8692C63.7002 16.3579 60.8611 19.1969 57.3725 19.1969C53.8289 19.1969 50.8338 16.2989 50.8338 12.8692C50.8338 9.38687 53.8901 6.3306 57.3725 6.3306ZM44.5061 38.391C44.5061 31.4157 50.3972 25.5246 57.3725 25.5246C64.3498 25.5246 70.0279 31.2955 70.0279 38.391H44.5061Z" fill="black"/>
</g>
<defs>
<clipPath id="clip0">
<rect width="108" height="108" fill="white"/>
</clipPath>
</defs>
</svg>
