<svg width="104" height="105" viewBox="0 0 104 105" fill="none" xmlns="http://www.w3.org/2000/svg">
<path d="M97.6965 77.9032L103.462 63.2913L100.36 62.033L94.0979 77.9032H93.5582V57.5806H90.2169V30.4839H83.5341V23.7097H80.1928V30.4839H76.8514V20.3226H73.51V30.4839H70.1687V23.7097H66.8273V30.4839H60.1446V50.8065H53.4619V59.4927C49.5241 54.5915 44.1495 51.0215 38.0498 49.3856L37.2913 47.0806C39.7272 46.3981 41.7286 44.6521 42.7294 42.3387H43.4378C47.1233 42.3387 50.1205 39.3005 50.1205 35.5645V27.0968C51.9632 27.0968 53.4619 25.5777 53.4619 23.7097V20.3226C53.4619 18.4546 51.9632 16.9355 50.1205 16.9355H49.8298C48.2309 7.18064 40.0012 0 30.0723 0C20.1434 0 11.9136 7.18064 10.3148 16.9355H10.0241C8.18133 16.9355 6.68273 18.4546 6.68273 20.3226V23.7097C6.68273 25.5777 8.18133 27.0968 10.0241 27.0968V35.5645C10.0241 39.3005 13.0213 42.3387 16.7068 42.3387H17.4152C18.4176 44.6521 20.4174 46.3998 22.8533 47.0806L22.0948 49.3856C9.03839 52.876 0 64.7071 0 78.4824V79.5968C0 86.8181 4.08315 93.0791 10.0241 96.1698V105H60.1446V91.4516H65.3254C66.1022 95.3112 69.4753 98.2258 73.51 98.2258C77.5447 98.2258 80.9179 95.3112 81.6947 91.4516H90.0799C96.7877 91.4516 102.458 86.5827 103.561 79.8762L103.885 77.9032H97.6965ZM76.8514 77.9032V60.9677H90.2169V77.9032H76.8514ZM63.486 33.871H86.8755V57.5806H76.8514V50.8065H63.486V33.871ZM73.51 54.1936V77.9032H56.8032V54.1936H73.51ZM53.4619 65.4997V77.9032H52.9222L46.6588 62.0313L43.5564 63.2896L49.3236 77.9032H43.137L43.4611 79.8762C43.9039 82.569 45.0917 84.9585 46.7791 86.8621V101.613H38.4257V98.2258C41.189 98.2258 43.4378 95.9463 43.4378 93.1452C43.4378 90.344 41.189 88.0645 38.4257 88.0645V53.0538C44.796 55.1064 50.184 59.5367 53.4619 65.4997ZM33.8798 47.4194L34.9106 50.5558L30.0723 57.9143L25.2323 50.5558L26.2648 47.4194H33.8798ZM35.0843 64.6072L32.1406 60.8763L35.0843 56.4002V64.6072ZM25.0602 64.6072V56.4002L28.004 60.8763L25.0602 64.6072ZM25.0602 70.0282L30.0723 63.6774L35.0843 70.0282V84.9755C34.5597 84.7875 34.0001 84.6774 33.4137 84.6774H31.4573C30.1191 84.6774 28.8594 85.2058 27.9121 86.1661L26.198 87.9036L25.0602 87.6462V70.0282ZM28.4016 90.4592L30.2744 88.5607C30.5902 88.2406 31.0112 88.0645 31.4573 88.0645H33.4137C34.3342 88.0645 35.0843 88.8249 35.0843 89.7581V91.4516H38.4257C39.3463 91.4516 40.0964 92.212 40.0964 93.1452C40.0964 94.0783 39.3463 94.8387 38.4257 94.8387H28.4016V90.4592ZM35.0843 98.2258V101.613H25.0602V98.2258H35.0843ZM43.4378 38.9516V32.1774C45.2805 32.1774 46.7791 33.6965 46.7791 35.5645C46.7791 37.4325 45.2805 38.9516 43.4378 38.9516ZM46.7791 29.7319C45.7917 29.1494 44.6607 28.7903 43.4378 28.7903V27.0968H46.7791V29.7319ZM46.4383 16.9355H35.0843V4.16274C40.8231 5.96637 45.2254 10.7913 46.4383 16.9355ZM31.743 3.47177V16.9355H28.4016V3.47177C28.9513 3.41758 29.5076 3.3871 30.0723 3.3871C30.637 3.3871 31.1933 3.41758 31.743 3.47177ZM25.0602 4.16274V16.9355H13.7063C14.9192 10.7913 19.3214 5.96637 25.0602 4.16274ZM10.0224 20.3226H10.0241H50.1205V23.7097H10.0241L10.0224 20.3226ZM16.7068 27.0968V28.7903C15.4839 28.7903 14.3528 29.1494 13.3655 29.7319V27.0968H16.7068ZM13.3655 35.5645C13.3655 33.6965 14.8641 32.1774 16.7068 32.1774V38.9516C14.8641 38.9516 13.3655 37.4325 13.3655 35.5645ZM20.0482 38.9516V27.0968H40.0964V38.9516C40.0964 41.7527 37.8477 44.0323 35.0843 44.0323H25.0602C22.2969 44.0323 20.0482 41.7527 20.0482 38.9516ZM3.34137 79.5968V78.4824C3.34137 66.6953 10.7993 56.5205 21.7189 53.0301V86.896L19.9062 86.4878C16.0553 85.619 13.3655 82.2201 13.3655 78.2199V71.129H10.0241V78.2199C10.0241 83.8188 13.7898 88.5777 19.1811 89.7919L25.0602 91.1163V94.8387H18.3775C10.0876 94.8387 3.34137 88.0002 3.34137 79.5968ZM13.3655 97.5044C14.961 97.9633 16.6383 98.2258 18.3775 98.2258H21.7189V101.613H13.3655V97.5044ZM50.1205 101.613V89.6124C52.0969 90.764 54.3807 91.4211 56.8032 91.4465V101.613H50.1205ZM73.51 94.8387C70.7467 94.8387 68.498 92.5592 68.498 89.7581C68.498 88.8249 69.2481 88.0645 70.1687 88.0645H76.8514C77.772 88.0645 78.5221 88.8249 78.5221 89.7581C78.5221 92.5592 76.2734 94.8387 73.51 94.8387ZM90.0782 88.0645H81.5544C80.8627 86.0983 79.025 84.6774 76.8497 84.6774H70.167C67.9918 84.6774 66.154 86.0983 65.4624 88.0645H56.9385C52.5547 88.0645 48.7589 85.3125 47.2736 81.2903H99.7398C98.2579 85.3125 94.4638 88.0645 90.0782 88.0645Z" fill="black"/>
<path d="M80.1927 37.2581H83.5341V40.6452H80.1927V37.2581Z" fill="black"/>
<path d="M73.51 37.2581H76.8514V40.6452H73.51V37.2581Z" fill="black"/>
<path d="M66.8273 37.2581H70.1686V40.6452H66.8273V37.2581Z" fill="black"/>
<path d="M80.1927 44.0323H83.5341V47.4194H80.1927V44.0323Z" fill="black"/>
<path d="M66.8273 44.0323H70.1686V47.4194H66.8273V44.0323Z" fill="black"/>
<path d="M73.51 44.0323H76.8514V47.4194H73.51V44.0323Z" fill="black"/>
<path d="M80.1927 50.8065H83.5341V54.1936H80.1927V50.8065Z" fill="black"/>
<path d="M60.1447 57.5806H63.486V74.516H60.1447V57.5806Z" fill="black"/>
<path d="M66.8273 57.5806H70.1686V74.516H66.8273V57.5806Z" fill="black"/>
<path d="M80.1927 64.3547H86.8755V67.7418H80.1927V64.3547Z" fill="black"/>
<path d="M80.1927 71.129H86.8755V74.5161H80.1927V71.129Z" fill="black"/>
</svg>
