<svg width="101" height="101" viewBox="0 0 101 101" fill="none" xmlns="http://www.w3.org/2000/svg">
<path d="M11.7588 83.9926C8.97556 83.9926 6.71933 86.2488 6.71933 89.0321C6.71933 91.8153 8.97556 94.0716 11.7588 94.0716C14.5421 94.0716 16.7983 91.8153 16.7983 89.0321C16.7983 86.2488 14.5421 83.9926 11.7588 83.9926ZM11.7588 90.7119C10.8311 90.7119 10.079 89.9597 10.079 89.0321C10.079 88.1044 10.8311 87.3522 11.7588 87.3522C12.6865 87.3522 13.4387 88.1044 13.4387 89.0321C13.4387 89.9597 12.6865 90.7119 11.7588 90.7119Z" fill="black"/>
<path d="M99.6347 71.1376C98.1682 68.6924 95.526 67.1963 92.6747 67.1963H92.3203C90.9886 67.1971 89.6775 67.5247 88.502 68.1504L75.5925 75.0361V52.0778H81.4719C86.5746 52.0778 90.711 47.9414 90.711 42.8387C90.711 37.736 86.5746 33.5996 81.4719 33.5996H45.3555C40.7169 33.5996 36.9563 29.8391 36.9563 25.2004C36.9563 20.5618 40.7169 16.8013 45.3555 16.8013H51.2349L60.81 29.568C61.1273 29.9909 61.6251 30.2399 62.1538 30.2399H99.1102C100.038 30.2399 100.79 29.4878 100.79 28.5601V1.68276C100.79 0.755075 100.038 0.00292969 99.1102 0.00292969H62.1538C61.6251 0.00292969 61.1273 0.251965 60.81 0.674863L51.2349 13.4416H45.3555C38.8613 13.4416 33.5967 18.7062 33.5967 25.2004C33.5967 31.6947 38.8613 36.9593 45.3555 36.9593H81.4719C84.719 36.9593 87.3513 39.5916 87.3513 42.8387C87.3513 46.0858 84.719 48.7181 81.4719 48.7181H75.5925V41.9988C75.5925 41.0711 74.8404 40.3189 73.9127 40.3189H26.8773C25.9496 40.3189 25.1975 41.0711 25.1975 41.9988V67.1963C23.895 67.6511 22.6326 68.213 21.4229 68.8761H0V72.2358H20.158V97.4333H0V100.793H63.6522C65.175 100.793 66.669 100.379 67.9745 99.5952L96.8491 82.2711C100.693 79.9657 101.94 74.9813 99.6347 71.1376ZM65.5343 19.8726C68.1584 18.9449 69.5336 16.0655 68.6057 13.4416C67.678 10.8175 64.7985 9.44233 62.1746 10.3702C60.7394 10.8775 59.6106 12.0066 59.1033 13.4416H55.4345L62.9938 3.3626H97.4303V26.8803H62.9938L55.4345 16.8013H59.1033C60.0309 19.4254 62.9104 20.8005 65.5343 19.8726ZM62.1538 15.1214C62.1538 14.1937 62.906 13.4416 63.8337 13.4416C64.7614 13.4416 65.5135 14.1937 65.5135 15.1214C65.5135 16.0491 64.7614 16.8013 63.8337 16.8013C62.906 16.8013 62.1538 16.0491 62.1538 15.1214ZM47.0353 43.6786H53.7547V50.3979H47.0353V43.6786ZM28.5572 43.6786H43.6757V52.0778C43.6757 53.0055 44.4278 53.7576 45.3555 53.7576H55.4345C56.3622 53.7576 57.1143 53.0055 57.1143 52.0778V43.6786H72.2328V76.8268L69.4813 78.2933C70.5074 74.2465 68.0587 70.1341 64.0117 69.1079C63.4045 68.954 62.7804 68.8761 62.1538 68.8761H45.7939C40.5333 66.0084 34.4305 65.0854 28.5572 66.269V43.6786ZM95.1206 79.3902L66.2459 96.7143C65.4625 97.1847 64.5661 97.4333 63.6522 97.4333H23.5177V71.5638C30.148 68.1729 38.0396 68.3451 44.5156 72.0224C44.772 72.1663 45.0615 72.24 45.3555 72.2358H62.1538C64.4733 72.2358 66.3534 74.1159 66.3534 76.4354C66.3534 78.7548 64.4733 80.6349 62.1538 80.6349H47.0353C46.1077 80.6349 45.3555 81.3871 45.3555 82.3148C45.3555 83.2425 46.1077 83.9946 47.0353 83.9946H65.5135C65.7894 83.995 66.0611 83.9276 66.3047 83.7981L90.0827 71.1153C90.7717 70.7487 91.54 70.5566 92.3203 70.5559H92.6747C95.3012 70.5557 97.4306 72.6847 97.4308 75.3111C97.4308 76.9824 96.5539 78.5307 95.1206 79.3902Z" fill="black"/>
<path d="M90.6936 17.6941C90.5628 16.416 89.7854 15.2943 88.6347 14.7229L84.2134 12.5123C84.0167 12.4161 83.9352 12.1786 84.0314 11.9821C84.0969 11.8479 84.2321 11.762 84.3814 11.7597H90.711V8.40005H87.3513V6.72021H83.9917V8.44036C81.9353 8.65076 80.439 10.4883 80.6494 12.5446C80.7802 13.8228 81.5576 14.9445 82.7083 15.5158L87.1296 17.7265C87.3263 17.8227 87.4078 18.0601 87.3116 18.2567C87.2461 18.3909 87.1109 18.4767 86.9616 18.479H80.632V21.8387H83.9917V23.5186H87.3513V21.7984C89.4077 21.588 90.904 19.7505 90.6936 17.6941Z" fill="black"/>
</svg>
