<svg width="107" height="100" viewBox="0 0 107 100" fill="none" xmlns="http://www.w3.org/2000/svg">
<path d="M106.18 96.195L92.7868 82.6454C91.2143 81.0538 89.2711 80.0582 87.2358 79.6584V52.3276C87.6734 52.3647 88.1093 52.3829 88.5443 52.3829C92.6792 52.3829 96.6699 50.741 99.6714 47.7045C103.521 43.81 105.103 38.272 103.902 32.8889C103.726 32.0944 103.112 31.4745 102.327 31.2949C97.0063 30.0816 91.5312 31.6814 87.6823 35.5759C87.5292 35.7301 87.3817 35.8883 87.2358 36.0474V25.0043C90.4386 22.5258 92.3191 18.7138 92.3191 14.586C92.3191 10.0577 90.0557 5.90682 86.2647 3.48357C85.5835 3.04838 84.7166 3.04838 84.0355 3.48357C80.2445 5.90682 77.9811 10.0577 77.9811 14.586C77.9811 18.7138 79.8615 22.5258 83.0643 25.0043V27.7737C79.6342 24.3375 74.7767 22.9289 70.0552 24.0062C69.2698 24.1858 68.6563 24.8065 68.4795 25.6002C67.4097 30.4006 68.82 35.3394 72.2526 38.8127C74.9298 41.5211 78.4887 42.985 82.1762 42.985C82.472 42.985 82.7678 42.9726 83.0643 42.9545V51.4292C82.793 51.1119 82.5103 50.802 82.2137 50.502C78.0707 46.3116 72.1964 44.5658 66.467 45.8113C66.0034 42.5382 63.2154 40.0144 59.8553 40.0144H46.4518L40.2068 31.3311C39.3236 30.1022 38.2237 29.0735 36.9844 28.2749C40.6239 26.7368 43.1888 23.0995 43.1888 18.8671V13.8228H46.4046C47.5566 13.8228 48.4904 12.8782 48.4904 11.7127C48.4904 10.5473 47.5566 9.60268 46.4046 9.60268H43.7623V6.2225C43.7623 2.90331 41.0932 0.203125 37.8122 0.203125H27.9513C24.6703 0.203125 22.0012 2.90331 22.0012 6.2225V9.60268H19.3589C18.2069 9.60268 17.2732 10.5473 17.2732 11.7127C17.2732 12.8782 18.2069 13.8228 19.3589 13.8228H23.0416V18.8671C23.0416 22.1525 24.588 25.0785 26.9817 26.9437C22.1804 28.4925 18.6925 33.0464 18.6925 38.4105V61.3851C18.6925 66.3231 21.3591 70.6405 25.3107 72.9475V86.5037H6.57058C2.9482 86.5037 0.000427246 89.4857 0.000427246 93.1503C0.000427246 96.8148 2.9482 99.7969 6.57058 99.7969H9.256C10.4081 99.7969 11.3418 98.8523 11.3418 97.6869C11.3418 96.5214 10.4081 95.5768 9.256 95.5768H6.57058C5.24824 95.5768 4.17195 94.488 4.17195 93.1503C4.17195 91.8125 5.24824 90.7237 6.57058 90.7237H27.3964C28.5485 90.7237 29.4822 89.7792 29.4822 88.6137V74.5036C30.2611 74.6495 31.0628 74.7295 31.8833 74.7295H36.0149V88.3771C36.0149 92.3475 32.8219 95.5768 28.898 95.5768H25.9421C24.7901 95.5768 23.8563 96.5214 23.8563 97.6869C23.8563 98.8523 24.7901 99.7969 25.9421 99.7969H28.898C35.1227 99.7969 40.1864 94.6743 40.1864 88.3771V74.7295H47.8149V93.1503C47.8149 96.8148 50.7627 99.7969 54.3851 99.7969C58.0083 99.7969 60.9552 96.8148 60.9552 93.1503V70.2564C60.9552 63.9592 55.8924 58.8366 49.6677 58.8366H39.6202V53.4313C39.8238 53.4972 40.0381 53.5327 40.2573 53.5327H59.8553C61.5581 53.5327 63.1135 52.884 64.2949 51.8191C64.4212 56.1851 66.1737 60.3713 69.3154 63.5504C72.5793 66.8523 76.9178 68.6367 81.4128 68.6367C81.962 68.6367 82.5127 68.6087 83.0643 68.5551V79.6658C81.0405 80.0697 79.1103 81.0621 77.546 82.6454L64.2142 96.1323C63.3995 96.9558 63.3995 98.2918 64.2142 99.1161C65.0282 99.9403 66.3497 99.9403 67.1636 99.1161L80.4954 85.63C83.0708 83.0237 87.2611 83.0237 89.8373 85.63L103.231 99.1787C103.638 99.5908 104.172 99.7969 104.706 99.7969C105.239 99.7969 105.773 99.5908 106.18 99.1787C106.995 98.3545 106.995 97.0184 106.18 96.195ZM83.0309 38.727C80.1402 38.9751 77.2902 37.9398 75.2028 35.829C73.1162 33.7173 72.0913 30.8349 72.3381 27.9097C75.2289 27.6608 78.0789 28.6969 80.1663 30.8077C82.2528 32.9194 83.277 35.8026 83.0309 38.727ZM90.6317 38.5596C93.1387 36.0243 96.5819 34.8102 100.058 35.1852C100.427 38.6998 99.2282 42.1846 96.722 44.72C94.215 47.2561 90.7719 48.4694 87.2961 48.0944C87.2587 47.7367 87.2416 47.3798 87.2358 47.0237V46.6132C87.2937 43.6163 88.4783 40.7381 90.6317 38.5596ZM85.1501 7.89157C87.0476 9.57054 88.1476 11.9872 88.1476 14.5868C88.1476 17.1856 87.0476 19.6023 85.1501 21.2812C83.2525 19.6023 82.1526 17.1865 82.1526 14.5868C82.1526 11.9872 83.2525 9.57054 85.1501 7.89157ZM39.0172 18.8671C39.0172 22.1591 36.3693 24.8378 33.1152 24.8378C29.8602 24.8378 27.2131 22.1591 27.2131 18.8671V13.8228H39.0172V18.8671ZM26.1727 6.2225C26.1727 5.23012 26.9703 4.4232 27.9513 4.4232H37.8122C38.7932 4.4232 39.5908 5.23012 39.5908 6.2225V9.60268H26.1727V6.2225ZM49.6677 63.0567C53.5915 63.0567 56.7837 66.2869 56.7837 70.2564V93.1503C56.7837 94.488 55.7082 95.5768 54.3851 95.5768C53.0627 95.5768 51.9865 94.488 51.9865 93.1503V72.6194C51.9865 71.4548 51.0527 70.5094 49.9007 70.5094H31.8825C27.4747 70.5094 23.7969 67.2924 23.018 63.0567H49.6677ZM59.8553 49.3126H41.1926L37.1409 44.7043C36.375 43.8331 35.0567 43.7556 34.1955 44.5296C33.3352 45.3043 33.2578 46.638 34.0236 47.5092L35.4486 49.1288V58.8366H22.864V38.4105C22.864 34.1022 26.3291 30.5967 30.5878 30.5967C33.05 30.5967 35.3851 31.7993 36.8337 33.8137L43.7037 43.3658C44.0964 43.9122 44.7229 44.2345 45.3902 44.2345H59.8553C61.2396 44.2345 62.3656 45.3736 62.3656 46.774C62.3656 48.1735 61.2388 49.3126 59.8553 49.3126ZM82.9763 64.3219C79.0329 64.7975 75.1099 63.4441 72.2656 60.5667C69.4213 57.6893 68.0819 53.7198 68.5528 49.7305C72.4954 49.2524 76.42 50.6091 79.2643 53.4865C81.7094 55.96 83.0383 59.2413 83.0643 62.6479V62.9462C83.0578 63.4037 83.0301 63.8628 82.9763 64.3219Z" fill="black"/>
<path d="M17.5982 95.5769C17.049 95.5769 16.5137 95.8027 16.1235 96.1951C15.7357 96.5874 15.514 97.1322 15.514 97.6869C15.514 98.2416 15.7357 98.7865 16.1235 99.1788C16.5137 99.5711 17.049 99.797 17.5982 99.797C18.1465 99.797 18.6842 99.5711 19.0745 99.1788C19.4623 98.7865 19.6856 98.2416 19.6856 97.6869C19.6856 97.1322 19.4623 96.5874 19.0745 96.1951C18.6842 95.8027 18.1465 95.5769 17.5982 95.5769Z" fill="black"/>
</svg>
