<svg width="30" height="30" viewBox="0 0 30 30" fill="none" xmlns="http://www.w3.org/2000/svg">
<rect width="30" height="30" rx="5" fill="#054D64"/>
<path d="M22.7049 8.05156C20.6473 6.08281 17.9071 5 14.9951 5C8.98437 5 4.0933 9.66875 4.0933 15.4062C4.0933 17.2391 4.5942 19.0297 5.54688 20.6094L4 26L9.77991 24.5516C11.371 25.3813 13.1634 25.8172 14.9902 25.8172H14.9951C21.0009 25.8172 26 21.1484 26 15.4109C26 12.6313 24.7625 10.0203 22.7049 8.05156ZM14.9951 24.0641C13.3647 24.0641 11.7687 23.6469 10.379 22.8594L10.05 22.6719L6.62232 23.5297L7.53571 20.3375L7.31964 20.0094C6.41116 18.6313 5.93482 17.0422 5.93482 15.4062C5.93482 10.6391 10.0009 6.75781 15 6.75781C17.421 6.75781 19.6946 7.65781 21.4036 9.29375C23.1125 10.9297 24.1634 13.1 24.1585 15.4109C24.1585 20.1828 19.9893 24.0641 14.9951 24.0641ZM19.9647 17.5859C19.6946 17.4547 18.354 16.8266 18.1036 16.7422C17.8531 16.6531 17.6714 16.6109 17.4897 16.8734C17.308 17.1359 16.7875 17.7172 16.6254 17.8953C16.4683 18.0688 16.3062 18.0922 16.0362 17.9609C14.4353 17.1969 13.3844 16.5969 12.3286 14.8672C12.0487 14.4078 12.6085 14.4406 13.129 13.4469C13.2174 13.2734 13.1732 13.1234 13.1045 12.9922C13.0357 12.8609 12.4906 11.5813 12.2647 11.0609C12.0437 10.5547 11.8179 10.625 11.6509 10.6156C11.4938 10.6063 11.3121 10.6063 11.1304 10.6063C10.9487 10.6063 10.654 10.6719 10.4036 10.9297C10.1531 11.1922 9.45089 11.8203 9.45089 13.1C9.45089 14.3797 10.4281 15.6172 10.5607 15.7906C10.6982 15.9641 12.4808 18.5891 15.2161 19.7188C16.9446 20.4312 17.6223 20.4922 18.4866 20.3703C19.0121 20.2953 20.0973 19.7422 20.3232 19.1328C20.5491 18.5234 20.5491 18.0031 20.4804 17.8953C20.4165 17.7781 20.2348 17.7125 19.9647 17.5859Z" fill="white"/>
</svg>
